<svg width="36px" height="36px" viewBox="0 0 48 48" xmlns="http://www.w3.org/2000/svg" fill="red">

<g id="SVGRepo_bgCarrier" stroke-width="0"/>

<g id="SVGRepo_tracerCarrier" stroke-linecap="round" stroke-linejoin="round"/>

<g id="SVGRepo_iconCarrier"> <path d="M0 0h48v48H0z" fill="none"/> <g id="Shopicon"> <rect x="2.201" y="22" transform="matrix(0.7071 -0.7071 0.7071 0.7071 -9.9411 23.9997)" width="43.598" height="4"/> <path d="M14,22c4.418,0,8-3.582,8-8s-3.582-8-8-8s-8,3.582-8,8S9.582,22,14,22z M14,10c2.206,0,4,1.794,4,4c0,2.206-1.794,4-4,4 s-4-1.794-4-4C10,11.794,11.794,10,14,10z"/> <path d="M34,42c4.418,0,8-3.582,8-8s-3.582-8-8-8s-8,3.582-8,8S29.582,42,34,42z M34,30c2.206,0,4,1.794,4,4c0,2.206-1.794,4-4,4 s-4-1.794-4-4C30,31.794,31.794,30,34,30z"/> </g> </g>

</svg>